<svg xmlns="http://www.w3.org/2000/svg"  viewBox="0 0 48 48" width="48px" height="48px"><path fill="#4b7bb2" d="M25.255,4.767c-2.229,0.111-4.456,0.117-6.687,0.189c-2.23,0.072-4.532,0.421-6.407,1.63 C10.631,7.574,9.5,9.059,8.402,10.513c-0.672,0.89-1.348,1.785-1.862,2.775c-0.659,1.267-1.039,2.661-1.305,4.063 C4.435,21.58,4.646,25.942,5.2,30.211c0.285,2.197,0.677,4.434,1.772,6.359c1.911,3.363,5.714,5.276,9.52,5.964 c3.806,0.688,7.711,0.342,11.578,0.254c1.663-0.038,3.348-0.03,4.96-0.439c2.413-0.613,4.535-2.149,6.09-4.092 c1.555-1.943,2.571-4.277,3.208-6.683c1.233-4.658,1.087-9.555,0.932-14.371c-0.027-0.848-0.056-1.707-0.297-2.521 c-0.223-0.755-0.621-1.444-1.016-2.126c-0.702-1.212-1.415-2.439-2.399-3.435c-1.216-1.231-2.79-2.051-4.406-2.668 C31.915,5.219,29.369,4.562,25.255,4.767z"/><path fill="#d6e5e5" d="M42.964,14.682c-0.223-0.755-0.621-1.444-1.016-2.126c-0.702-1.212-1.415-2.439-2.399-3.435 c-1.216-1.231-2.79-2.051-4.406-2.668c-3.227-1.234-5.774-1.891-9.888-1.685c-2.229,0.111-4.456,0.117-6.687,0.189 c-1.404,0.046-2.836,0.202-4.173,0.612c-5.518,5.83-8.092,15.256-5.553,22.871c0.594,1.781,1.41,3.479,2.26,5.153 c0.274,0.54,0.807,0.843,0.878,1.444c0.152,1.294-0.688,2.474-1.484,3.506c1.138,0.348,2.398,0.286,3.496-0.174 c0.715-0.299,1.406-0.768,2.18-0.731c0.725,0.035,1.343,0.508,2.014,0.783c0.631,0.258,2.317,0.843,2.994,0.924 c3.711,0.448,6.208,0.396,9.927,0.023c3.203-0.321,6.12-1.005,8.976-2.488c1.022-1.629,1.751-3.443,2.245-5.307 c1.233-4.658,1.087-9.555,0.932-14.371C43.234,16.354,43.205,15.495,42.964,14.682z"/><path fill="#4b7bb2" d="M12.222,17.602c-0.067,0.842-0.133,1.684-0.2,2.526c1.681-0.325,3.41-0.256,5.12-0.186 c-2.154,2.28-3.881,4.477-5.657,7.062c2.647,0.001,5.043,0.001,7.69,0.002c0.131,0,0.278-0.007,0.366-0.105 c0.078-0.087,0.08-0.215,0.078-0.331c-0.007-0.449-0.015-1.148-0.022-1.597c-1.568,0.15-2.648,0.176-4.221,0.076 c1.717-1.707,2.505-2.732,3.761-4.585c0.53-0.782,1.202-1.628,1.053-2.561c-0.68,0.039-1.483,0.073-2.171,0.083 C16.064,18.012,14.148,17.935,12.222,17.602"/><path fill="#4b7bb2" d="M27.934,19.869c-0.05-0.063-0.137-0.082-0.216-0.095c-0.442-0.073-0.891-0.097-1.338-0.072 c0.041,0.303-0.023,0.619-0.179,0.882c-0.147-0.4-0.896-0.828-1.322-0.846c-0.831-0.036-1.682,0.056-2.438,0.4 c-0.757,0.345-1.411,0.964-1.677,1.752c-0.175,0.518-0.176,1.077-0.167,1.623c0.005,0.298,0.013,0.599,0.089,0.887 c0.113,0.432,0.371,0.809,0.623,1.177c0.234,0.341,0.479,0.692,0.833,0.906c0.17,0.103,0.36,0.17,0.552,0.22 c1.158,0.303,2.461-0.03,3.332-0.851c-0.118,0.368,0.164,0.771,0.522,0.916c0.358,0.146,0.763,0.099,1.144,0.031 c0.096-2.233,0.192-4.465,0.288-6.698C27.984,20.021,27.985,19.932,27.934,19.869z M25.473,24 c-0.41,0.615-1.254,1.087-2.035,0.688c-0.18-0.092-0.584-0.714-0.642-0.908c-0.035-0.117-0.107-0.423-0.107-0.757 c0-0.71,0.558-1.115,1.236-1.327c0.325,0.004,0.53-0.075,0.929,0.147C25.501,22.201,25.883,23.385,25.473,24z"/><path fill="#4b7bb2" d="M29.577,18.335c0.314,2.703,0.204,5.676,0.167,8.396c-0.002,0.114,0.006,0.247,0.1,0.311 c0.058,0.039,0.133,0.04,0.202,0.039c0.38-0.004,1.009-0.008,1.389-0.011c0.056-0.001,0.116-0.003,0.159-0.038 c0.052-0.042,0.061-0.116,0.066-0.182c0.222-2.891,0.264-6.046,0.056-8.938c-0.004-0.052-0.01-0.108-0.046-0.145 c-0.047-0.048-0.124-0.042-0.191-0.034c-0.435,0.056-1.119,0.112-1.554,0.168C29.758,17.922,29.546,18,29.577,18.335z"/><path fill="#4b7bb2" d="M40.693,21.696c-0.643-1.292-1.806-2.671-3.851-2.671c-1.909,0.086-3.591,1.832-3.605,3.742 c-0.003,0.452,0.075,0.902,0.179,1.342c0.205,0.864,0.571,1.775,1.346,2.208c0.366,0.204,0.788,0.562,1.201,0.634 c0.471,0.083,0.935,0.245,1.413,0.248c0.543,0.004,0.861-0.117,1.081-0.155c0.952-0.165,1.193-0.49,1.698-1.14 C41.04,24.765,41.335,22.987,40.693,21.696z M38.618,24.391c-0.272,0.559-1.206,0.786-1.809,0.637 c-0.603-0.149-1.272-0.485-1.521-1.055c-0.058-0.134-0.206-0.994,0.01-1.364c0.188-0.322,0.409-0.632,0.691-0.876 c0.282-0.244,0.652-0.364,1.025-0.359c0.581,0.009,1.056,0.055,1.442,0.49c0.133,0.15,0.36,0.691,0.437,0.971 C39.026,23.316,38.835,23.944,38.618,24.391z"/><path fill="#010101" d="M42.997,30.919c0.535-2.323,0.765-4.693,0.84-7.073c0.074-2.38-0.008-4.771-0.097-7.136 c-0.017-0.364-0.042-0.727-0.087-1.088s-0.109-0.719-0.206-1.073c-0.14-0.431-0.32-0.848-0.521-1.254 c-0.202-0.406-0.425-0.803-0.653-1.194c-1.514-3.079-4.179-5.089-7.26-6.305s-6.579-1.634-9.757-1.529 c-1.826,0.129-3.68,0.077-5.521,0.121c-1.842,0.044-3.671,0.183-5.448,0.692c-1.381,0.366-2.556,1.104-3.588,2.028 S8.778,9.146,7.971,10.26c-2.252,2.755-3.268,6.046-3.624,9.482s-0.052,7.017,0.338,10.35c0.181,1.978,0.609,3.997,1.428,5.803 c0.819,1.806,2.031,3.399,3.779,4.526c2.758,1.923,5.892,2.671,9.132,2.921c3.239,0.25,6.584,0.002,9.76-0.069 c2.392,0.123,4.748-0.387,6.802-1.454c2.054-1.068,3.806-2.694,4.988-4.802c0.581-0.93,1.063-1.922,1.461-2.947 C42.435,33.044,42.75,31.985,42.997,30.919z M42.583,27.475c-0.191,1.555-0.481,3.118-0.929,4.628 c-0.448,1.511-1.052,2.97-1.872,4.319c-2.575,1.441-6.538,2.379-10.548,2.681s-8.064-0.029-10.822-1.127 c-0.369-0.154-0.723-0.355-1.087-0.521c-0.364-0.167-0.739-0.3-1.152-0.317c-0.833,0.043-1.598,0.417-2.374,0.728 s-1.562,0.557-2.437,0.346c0.372-0.513,0.73-1.102,0.942-1.723c0.212-0.621,0.277-1.274,0.066-1.914 c-0.49-0.683-0.938-1.41-1.338-2.168c-0.399-0.757-0.75-1.544-1.047-2.345c-1.731-3.972-2.015-8.425-1.139-12.66 c0.876-4.236,2.914-8.254,5.826-11.36c1.607-0.477,3.271-0.607,4.947-0.646c1.676-0.039,3.363,0.013,5.016-0.1 c3.683-0.255,7.78,0.337,11.162,2.009c3.382,1.673,6.047,4.426,6.865,8.492c0.001,0.012,0.003,0.025,0.004,0.037 s0.003,0.025,0.004,0.037c0.118,1.928,0.2,3.867,0.2,5.805S42.79,25.551,42.583,27.475z M36.831,39.859 c-1.634,1.415-3.574,2.017-5.608,2.28c-2.035,0.263-4.165,0.188-6.179,0.247c-2.863,0.131-5.958,0.151-8.855-0.434 s-5.593-1.773-7.657-4.057C7.164,36.309,6.447,34.4,6.027,32.39c-0.42-2.01-0.542-4.121-0.719-6.112 c-0.102-2.129-0.155-4.333,0.052-6.495c0.207-2.162,0.674-4.282,1.612-6.243c0.691-1.22,1.491-2.466,2.414-3.599 c0.923-1.134,1.968-2.156,3.149-2.931c-2.58,3.362-4.297,7.435-4.909,11.641S7.507,27.196,9.35,31.094 c0.267,0.605,0.533,1.218,0.833,1.811c0.3,0.593,0.635,1.166,1.04,1.69c0.442,0.573,0.326,1.27,0.013,1.938 s-0.823,1.305-1.17,1.758c-0.101,0.132-0.096,0.296-0.031,0.437s0.19,0.258,0.33,0.298c0.849,0.279,1.698,0.291,2.527,0.14 c0.828-0.152,1.636-0.468,2.402-0.845c0.48-0.19,0.882-0.175,1.27-0.063c0.388,0.112,0.763,0.32,1.191,0.516 c1.826,0.816,3.772,1.187,5.752,1.324s3.991,0.04,5.948-0.079c1.562-0.123,3.111-0.304,4.633-0.599 c1.522-0.295,3.015-0.705,4.465-1.288c-0.258,0.311-0.528,0.613-0.813,0.902S37.152,39.6,36.831,39.859z"/><path fill="#010101" d="M20.097,24.973c-0.004-0.251-0.227-0.526-0.5-0.5c-1.032,0.097-2.059,0.118-3.089,0.1 c0.767-0.817,1.503-1.659,2.164-2.57c0.456-0.628,0.902-1.268,1.327-1.917c0.427-0.654,0.783-1.381,0.691-2.182 c-0.029-0.257-0.205-0.516-0.5-0.5c-2.61,0.145-5.25,0.153-7.835-0.283c-0.033-0.006-0.06,0.003-0.091,0.003 c-0.003,0-0.006,0-0.009,0c-0.06,0.001-0.117,0.008-0.169,0.028c-0.025,0.008-0.046,0.022-0.069,0.033 c-0.022,0.012-0.046,0.02-0.065,0.035c-0.121,0.079-0.215,0.203-0.229,0.384c-0.067,0.842-0.133,1.684-0.2,2.526 c-0.028,0.35,0.34,0.536,0.633,0.482c1.287-0.239,2.595-0.247,3.9-0.208c-1.809,2.002-3.469,4.125-5.001,6.349 c-0.22,0.32,0.074,0.752,0.432,0.752c1.989,0,3.978,0.001,5.967,0.001c0.482,0,0.965,0,1.447,0c0.395,0,0.821,0.008,1.073-0.352 c0.193-0.275,0.145-0.643,0.141-0.959C20.108,25.787,20.103,25.38,20.097,24.973z M17.721,26.505c-0.415,0-0.83,0-1.245,0 c-1.341,0-2.681-0.001-4.022-0.001c1.545-2.179,3.208-4.261,5.042-6.208c0.303-0.322,0.082-0.836-0.354-0.854 c-1.53-0.063-3.058-0.09-4.575,0.112c0.037-0.464,0.073-0.928,0.11-1.393c2.315,0.336,4.656,0.372,6.992,0.262 c-0.095,0.516-0.402,0.967-0.706,1.413c-0.406,0.595-0.81,1.191-1.235,1.772c-0.811,1.108-1.734,2.117-2.705,3.087 c-0.321,0.32-0.068,0.828,0.354,0.854c1.248,0.076,2.485,0.047,3.728-0.048c0.002,0.138,0.004,0.276,0.006,0.413 c0.002,0.156-0.038,0.389,0.007,0.538c0,0.013,0,0.026,0.001,0.039c-0.03-0.001-0.058-0.003-0.127,0.013 C18.608,26.426,18.117,26.505,17.721,26.505z"/><path fill="#010101" d="M27.585,19.253c-0.401-0.053-0.801-0.07-1.206-0.051c-0.061,0.003-0.11,0.021-0.16,0.04 c-0.168,0.036-0.301,0.151-0.327,0.346c-0.136-0.08-0.275-0.151-0.411-0.207c-0.536-0.218-1.155-0.172-1.719-0.104 c-1.215,0.146-2.37,0.666-3.087,1.69c-0.371,0.53-0.526,1.153-0.567,1.791c-0.042,0.648-0.061,1.388,0.172,2.004 c0.21,0.558,0.572,1.072,0.941,1.536c0.379,0.475,0.857,0.779,1.451,0.913c1.055,0.238,2.147,0.029,3.053-0.523 c0.099,0.156,0.221,0.299,0.386,0.408c0.515,0.34,1.137,0.282,1.715,0.185c0.22-0.037,0.358-0.278,0.367-0.482 c0.071-1.65,0.142-3.3,0.213-4.951c0.017-0.388,0.033-0.777,0.05-1.165c0.014-0.324,0.097-0.733-0.072-1.032 C28.213,19.349,27.9,19.295,27.585,19.253z M26.509,25.985c0.11-0.492-0.462-0.827-0.836-0.487 c-0.792,0.722-2.05,1.059-3.074,0.653c-0.523-0.208-0.848-0.778-1.129-1.234c-0.343-0.557-0.379-1.104-0.376-1.747 c0.003-0.606,0.079-1.196,0.443-1.698c0.315-0.434,0.781-0.759,1.277-0.953c0.611-0.239,1.281-0.309,1.932-0.287 c0.383,0.013,0.859,0.24,1.022,0.603c0.154,0.344,0.699,0.309,0.864,0c0.107-0.2,0.173-0.409,0.213-0.625 c0.158,0.003,0.315-0.006,0.473,0.01c0.049,0.004,0.098,0.013,0.147,0.019c-0.003,0.114-0.003,0.26-0.004,0.298 c-0.03,0.704-0.06,1.408-0.091,2.111c-0.053,1.234-0.106,2.468-0.159,3.702C26.867,26.367,26.434,26.321,26.509,25.985z"/><path fill="#010101" d="M26.019,22.619c-0.141-0.415-0.373-0.806-0.723-1.077c-0.2-0.154-0.437-0.278-0.687-0.323 c-0.232-0.041-0.451-0.022-0.683-0.023c-0.018,0-0.035,0.009-0.053,0.011c-0.027,0.003-0.053-0.002-0.08,0.007 c-0.017,0.005-0.033,0.015-0.05,0.021c-0.005,0.002-0.009,0.004-0.013,0.005c-0.371,0.125-0.728,0.296-1.016,0.567 c-0.317,0.298-0.493,0.701-0.521,1.133c-0.049,0.752,0.255,1.452,0.764,1.993c0.29,0.308,0.782,0.431,1.193,0.399 c0.487-0.038,0.914-0.239,1.288-0.548c0.307-0.254,0.579-0.608,0.661-1.005C26.177,23.395,26.145,22.99,26.019,22.619z M25.13,23.495c-0.009,0.067-0.025,0.135-0.052,0.205c-0.064,0.168-0.22,0.281-0.358,0.385c-0.226,0.17-0.508,0.322-0.799,0.251 c-0.251-0.061-0.404-0.266-0.534-0.474c-0.131-0.21-0.225-0.364-0.223-0.62c0.002-0.265,0.027-0.524,0.229-0.722 c0.108-0.106,0.207-0.196,0.349-0.253c0.12-0.048,0.253-0.068,0.377-0.076c0.243-0.017,0.591,0.086,0.731,0.305 c0.077,0.12,0.134,0.208,0.177,0.344C25.1,23.066,25.158,23.276,25.13,23.495z"/><path fill="#010101" d="M31.776,17.272c-0.334-0.118-0.796,0.017-1.142,0.052c-0.65,0.065-1.393,0.09-1.528,0.787 c-0.025,0.063-0.038,0.136-0.029,0.224c0.213,1.892,0.23,3.798,0.209,5.699c-0.01,0.912-0.091,1.845-0.039,2.756 c0.051,0.903,0.892,0.791,1.564,0.786c0.288-0.002,0.629,0.044,0.903-0.054c0.383-0.138,0.431-0.484,0.461-0.842 c0.077-0.927,0.117-1.859,0.146-2.789c0.06-1.907,0.041-3.818-0.085-5.723C32.21,17.789,32.188,17.417,31.776,17.272z M30.673,26.577c-0.139,0.001-0.285-0.008-0.426-0.016c0.064-0.176,0.008-0.498,0.011-0.688c0.004-0.232,0.008-0.464,0.012-0.696 c0.008-0.47,0.015-0.939,0.019-1.409c0.017-1.798-0.009-3.598-0.207-5.387c0.07-0.008,0.14-0.016,0.211-0.023 c0.184-0.02,0.368-0.037,0.552-0.056c0.115-0.012,0.266-0.014,0.398-0.034c0.003,0.052,0.007,0.104,0.01,0.157 c0.053,0.874,0.084,1.749,0.095,2.624c0.013,0.947,0.003,1.895-0.027,2.841c-0.013,0.411-0.03,0.822-0.05,1.232 c-0.019,0.374-0.045,0.748-0.061,1.122c-0.005,0.115-0.005,0.217-0.036,0.327C31.007,26.579,30.84,26.575,30.673,26.577z"/><path fill="#010101" d="M36.855,18.705c-1.762,0.11-3.327,1.382-3.805,3.086c-0.272,0.969-0.112,2.033,0.208,2.971 c0.139,0.408,0.32,0.803,0.581,1.148c0.296,0.392,0.667,0.621,1.072,0.881c0.413,0.265,0.785,0.44,1.27,0.525 c0.507,0.089,1.034,0.248,1.55,0.187c0.738-0.087,1.517-0.307,2.1-0.786c1.351-1.111,1.914-3.262,1.278-4.887 C40.409,20.04,38.807,18.733,36.855,18.705z M39.593,25.521c-0.856,1.092-2.315,1.138-3.554,0.752 c-0.331-0.103-0.627-0.351-0.92-0.53c-0.329-0.201-0.55-0.482-0.723-0.824c-0.341-0.677-0.526-1.547-0.482-2.301 c0.089-1.503,1.452-2.821,2.94-2.913c1.377,0.02,2.415,0.817,3.077,1.982C40.62,22.899,40.45,24.428,39.593,25.521z"/><path fill="#010101" d="M38.614,21.403c-0.459-0.385-1.016-0.463-1.598-0.473c-0.577,0.002-1.1,0.226-1.501,0.64 c-0.349,0.36-0.685,0.813-0.752,1.321c-0.048,0.365-0.024,0.772,0.075,1.128c0.123,0.439,0.485,0.79,0.859,1.028 c0.792,0.503,1.795,0.633,2.644,0.195c0.451-0.233,0.68-0.618,0.85-1.08c0.176-0.477,0.262-1.023,0.108-1.517 C39.163,22.208,38.975,21.706,38.614,21.403z M38.337,23.538c-0.038,0.161-0.109,0.372-0.153,0.471 c-0.055,0.122-0.139,0.247-0.255,0.317c-0.138,0.083-0.293,0.136-0.451,0.168c-0.132,0.027-0.294,0.044-0.428,0.02 c-0.034-0.006-0.067-0.013-0.1-0.021c-0.081-0.019-0.161-0.043-0.239-0.069c-0.351-0.115-0.665-0.234-0.853-0.578 c-0.048-0.089-0.111-0.201-0.114-0.304c-0.003-0.09,0.001-0.184-0.001-0.275c-0.002-0.081,0.002-0.162,0.008-0.257 c0.009-0.038,0.02-0.077,0.034-0.127c0.035-0.047,0.063-0.105,0.094-0.155c0.05-0.08,0.122-0.187,0.166-0.245 c0.073-0.095,0.156-0.185,0.243-0.268c0.08-0.077,0.111-0.105,0.22-0.165c0.163-0.09,0.325-0.117,0.51-0.118 c0.091,0.002,0.182,0.004,0.273,0.009c0.052,0.003,0.104,0.008,0.156,0.012c0.105,0.01,0.039,0.006,0.017,0.002 c0.178,0.031,0.341,0.096,0.483,0.21c0.169,0.135,0.293,0.398,0.345,0.602C38.359,23.036,38.403,23.26,38.337,23.538z"/></svg>